# xmcd
#
# Track frame offsets: 
#        150
#        21559
#        36060
#        58316
#        74825
#        93527
#        110048
#        128642
#        143583
#        160337
#        177786
#        195350
#
# Disc length: 3070 seconds
#
# Revision: 0
# Processed by: cddbd v1.5.1PL2 Copyright (c) Steve Scherf et al.
# Submitted via: ExactAudioCopy v0.95b4
#
DISCID=af0bfc0c
DTITLE=Bonnie Bishop - Soft to the Touch
DYEAR=2005
DGENRE=Country
TTITLE0=Love Never Knows
TTITLE1=Trains
TTITLE2=The House That Jack Built
TTITLE3=Soft to the Touch
TTITLE4=Something the Doctor Didn't Order
TTITLE5=Brent Rollins
TTITLE6=He Took Me to the River
TTITLE7=I Must Want It Bad
TTITLE8=Give It Up To Me
TTITLE9=Red Moon
TTITLE10=Stillhouse
TTITLE11=Fallen Angel
EXTD=
EXTT0=
EXTT1=
EXTT2=
EXTT3=
EXTT4=
EXTT5=
EXTT6=
EXTT7=
EXTT8=
EXTT9=
EXTT10=
EXTT11=
PLAYORDER=
